<svg width="243" height="40" viewBox="0 0 243 40" fill="none" xmlns="http://www.w3.org/2000/svg">
<rect width="40" height="40" rx="3" fill="#FFC63A"/>
<rect width="40" height="40" rx="3" fill="url(#paint0_linear_228_1439)"/>
<path d="M21.1782 8L23.3883 8.37354L22.6412 12.7004L20.4311 12.3268L21.1782 8ZM17.007 31.6265L17.7852 27.2996L19.9642 27.6732L19.2171 32L17.007 31.6265ZM12.4622 22.5992H16.1976C16.4259 23.3048 16.8928 23.8859 17.5984 24.3424C18.304 24.7782 19.2378 24.9961 20.4 24.9961C21.1886 24.9961 21.8007 24.9235 22.2365 24.7782C22.6723 24.6329 22.9732 24.4254 23.1393 24.1556C23.3053 23.8859 23.3883 23.5746 23.3883 23.2218C23.3883 22.786 23.2534 22.454 22.9836 22.2257C22.7138 21.9767 22.2988 21.7795 21.7385 21.6342C21.1782 21.489 20.4622 21.3541 19.5906 21.2296C18.719 21.0843 17.8786 20.9079 17.0692 20.7004C16.2599 20.4721 15.5439 20.192 14.9214 19.8599C14.2988 19.5279 13.8007 19.1025 13.4272 18.5837C13.0744 18.0441 12.898 17.3904 12.898 16.6226C12.898 15.8755 13.0744 15.2114 13.4272 14.6304C13.8007 14.0493 14.3092 13.5616 14.9525 13.1673C15.6166 12.7523 16.3844 12.441 17.256 12.2335C18.1483 12.0259 19.1133 11.9222 20.1509 11.9222C21.6866 11.9222 22.9525 12.1505 23.9486 12.607C24.9655 13.0636 25.7229 13.6861 26.221 14.4747C26.7398 15.2633 26.9992 16.1764 26.9992 17.214H23.4194C23.2534 16.4669 22.9214 15.917 22.4233 15.5642C21.9253 15.2114 21.1574 15.035 20.1198 15.035C19.1237 15.035 18.3559 15.201 17.8163 15.5331C17.2975 15.8444 17.0381 16.2698 17.0381 16.8093C17.0381 17.2244 17.1937 17.5564 17.505 17.8054C17.8371 18.0337 18.3144 18.2309 18.9369 18.3969C19.5803 18.5422 20.3792 18.6978 21.3338 18.8638C22.1432 19.0298 22.9214 19.2166 23.6684 19.4241C24.4155 19.6316 25.0796 19.9014 25.6607 20.2335C26.2417 20.5447 26.6983 20.9598 27.0303 21.4786C27.3831 21.9974 27.5595 22.6615 27.5595 23.4708C27.5595 24.4669 27.269 25.3178 26.6879 26.0233C26.1068 26.7082 25.2871 27.227 24.2288 27.5798C23.1704 27.9326 21.9045 28.1089 20.4311 28.1089C18.7917 28.1089 17.4428 27.9014 16.3844 27.4864C15.326 27.0506 14.4959 26.5214 13.8941 25.8988C13.3131 25.2763 12.9084 24.6641 12.6801 24.0623C12.4726 23.4604 12.4 22.9728 12.4622 22.5992Z" fill="black"/>
<path d="M21.1782 8L23.3883 8.37354L22.6412 12.7004L20.4311 12.3268L21.1782 8ZM17.007 31.6265L17.7852 27.2996L19.9642 27.6732L19.2171 32L17.007 31.6265ZM12.4622 22.5992H16.1976C16.4259 23.3048 16.8928 23.8859 17.5984 24.3424C18.304 24.7782 19.2378 24.9961 20.4 24.9961C21.1886 24.9961 21.8007 24.9235 22.2365 24.7782C22.6723 24.6329 22.9732 24.4254 23.1393 24.1556C23.3053 23.8859 23.3883 23.5746 23.3883 23.2218C23.3883 22.786 23.2534 22.454 22.9836 22.2257C22.7138 21.9767 22.2988 21.7795 21.7385 21.6342C21.1782 21.489 20.4622 21.3541 19.5906 21.2296C18.719 21.0843 17.8786 20.9079 17.0692 20.7004C16.2599 20.4721 15.5439 20.192 14.9214 19.8599C14.2988 19.5279 13.8007 19.1025 13.4272 18.5837C13.0744 18.0441 12.898 17.3904 12.898 16.6226C12.898 15.8755 13.0744 15.2114 13.4272 14.6304C13.8007 14.0493 14.3092 13.5616 14.9525 13.1673C15.6166 12.7523 16.3844 12.441 17.256 12.2335C18.1483 12.0259 19.1133 11.9222 20.1509 11.9222C21.6866 11.9222 22.9525 12.1505 23.9486 12.607C24.9655 13.0636 25.7229 13.6861 26.221 14.4747C26.7398 15.2633 26.9992 16.1764 26.9992 17.214H23.4194C23.2534 16.4669 22.9214 15.917 22.4233 15.5642C21.9253 15.2114 21.1574 15.035 20.1198 15.035C19.1237 15.035 18.3559 15.201 17.8163 15.5331C17.2975 15.8444 17.0381 16.2698 17.0381 16.8093C17.0381 17.2244 17.1937 17.5564 17.505 17.8054C17.8371 18.0337 18.3144 18.2309 18.9369 18.3969C19.5803 18.5422 20.3792 18.6978 21.3338 18.8638C22.1432 19.0298 22.9214 19.2166 23.6684 19.4241C24.4155 19.6316 25.0796 19.9014 25.6607 20.2335C26.2417 20.5447 26.6983 20.9598 27.0303 21.4786C27.3831 21.9974 27.5595 22.6615 27.5595 23.4708C27.5595 24.4669 27.269 25.3178 26.6879 26.0233C26.1068 26.7082 25.2871 27.227 24.2288 27.5798C23.1704 27.9326 21.9045 28.1089 20.4311 28.1089C18.7917 28.1089 17.4428 27.9014 16.3844 27.4864C15.326 27.0506 14.4959 26.5214 13.8941 25.8988C13.3131 25.2763 12.9084 24.6641 12.6801 24.0623C12.4726 23.4604 12.4 22.9728 12.4622 22.5992Z" fill="url(#paint1_linear_228_1439)"/>
<path d="M62.92 16.416H61.408L70.336 2.472H73.528V18H70.336V6.72L71.104 6.936L63.976 18H60.4L53.272 6.984L54.04 6.768V18H50.848V2.472H54.04L62.92 16.416ZM80.3832 0.839999V3.576H76.7592V0.839999H80.3832ZM76.9992 6.072H80.1192V18H76.9992V6.072ZM83.4691 1.272H86.5891V18H83.4691V1.272ZM89.9847 1.272H93.1047V18H89.9847V1.272ZM99.8363 0.839999V3.576H96.2123V0.839999H99.8363ZM96.4523 6.072H99.5723V18H96.4523V6.072ZM109.714 18.288C108.21 18.288 106.882 18.048 105.73 17.568C104.594 17.088 103.706 16.392 103.066 15.48C102.426 14.552 102.106 13.416 102.106 12.072C102.106 10.728 102.426 9.592 103.066 8.664C103.706 7.72 104.594 7.008 105.73 6.528C106.882 6.048 108.21 5.808 109.714 5.808C111.218 5.808 112.53 6.048 113.65 6.528C114.786 7.008 115.674 7.72 116.314 8.664C116.954 9.592 117.274 10.728 117.274 12.072C117.274 13.416 116.954 14.552 116.314 15.48C115.674 16.392 114.786 17.088 113.65 17.568C112.53 18.048 111.218 18.288 109.714 18.288ZM109.714 15.888C110.546 15.888 111.29 15.744 111.946 15.456C112.618 15.152 113.146 14.72 113.53 14.16C113.914 13.584 114.106 12.888 114.106 12.072C114.106 11.256 113.914 10.56 113.53 9.984C113.146 9.392 112.626 8.944 111.97 8.64C111.314 8.336 110.562 8.184 109.714 8.184C108.882 8.184 108.13 8.336 107.458 8.64C106.786 8.944 106.25 9.384 105.85 9.96C105.466 10.536 105.274 11.24 105.274 12.072C105.274 12.888 105.466 13.584 105.85 14.16C106.234 14.72 106.762 15.152 107.434 15.456C108.106 15.744 108.866 15.888 109.714 15.888ZM119.581 6.072H122.701V18H119.581V6.072ZM128.245 5.808C128.981 5.808 129.661 5.904 130.285 6.096C130.909 6.288 131.453 6.584 131.917 6.984C132.381 7.384 132.741 7.896 132.997 8.52C133.253 9.128 133.381 9.856 133.381 10.704V18H130.261V11.256C130.261 10.248 130.013 9.512 129.517 9.048C129.037 8.568 128.245 8.328 127.141 8.328C126.309 8.328 125.557 8.488 124.885 8.808C124.213 9.128 123.669 9.536 123.253 10.032C122.837 10.512 122.597 11.016 122.533 11.544L122.509 10.32C122.589 9.76 122.773 9.216 123.061 8.688C123.349 8.16 123.733 7.68 124.213 7.248C124.709 6.8 125.293 6.448 125.965 6.192C126.637 5.936 127.397 5.808 128.245 5.808ZM151.298 2.472C153.042 2.472 154.498 2.68 155.666 3.096C156.834 3.512 157.762 4.08 158.45 4.8C159.154 5.504 159.65 6.32 159.938 7.248C160.242 8.176 160.394 9.152 160.394 10.176C160.394 11.2 160.226 12.184 159.89 13.128C159.57 14.072 159.05 14.912 158.33 15.648C157.626 16.368 156.69 16.944 155.522 17.376C154.37 17.792 152.962 18 151.298 18H142.418V2.472H151.298ZM145.61 15.264H151.226C152.378 15.264 153.33 15.128 154.082 14.856C154.85 14.568 155.458 14.184 155.906 13.704C156.354 13.224 156.674 12.68 156.866 12.072C157.058 11.464 157.154 10.832 157.154 10.176C157.154 9.52 157.058 8.896 156.866 8.304C156.674 7.712 156.354 7.184 155.906 6.72C155.458 6.256 154.85 5.888 154.082 5.616C153.33 5.344 152.378 5.208 151.226 5.208H145.61V15.264ZM170.136 18.288C168.632 18.288 167.304 18.048 166.152 17.568C165.016 17.088 164.128 16.392 163.488 15.48C162.848 14.552 162.528 13.416 162.528 12.072C162.528 10.728 162.848 9.592 163.488 8.664C164.128 7.72 165.016 7.008 166.152 6.528C167.304 6.048 168.632 5.808 170.136 5.808C171.64 5.808 172.952 6.048 174.072 6.528C175.208 7.008 176.096 7.72 176.736 8.664C177.376 9.592 177.696 10.728 177.696 12.072C177.696 13.416 177.376 14.552 176.736 15.48C176.096 16.392 175.208 17.088 174.072 17.568C172.952 18.048 171.64 18.288 170.136 18.288ZM170.136 15.888C170.968 15.888 171.712 15.744 172.368 15.456C173.04 15.152 173.568 14.72 173.952 14.16C174.336 13.584 174.528 12.888 174.528 12.072C174.528 11.256 174.336 10.56 173.952 9.984C173.568 9.392 173.048 8.944 172.392 8.64C171.736 8.336 170.984 8.184 170.136 8.184C169.304 8.184 168.552 8.336 167.88 8.64C167.208 8.944 166.672 9.384 166.272 9.96C165.888 10.536 165.696 11.24 165.696 12.072C165.696 12.888 165.888 13.584 166.272 14.16C166.656 14.72 167.184 15.152 167.856 15.456C168.528 15.744 169.288 15.888 170.136 15.888ZM180.243 1.272H183.363V18H180.243V1.272ZM186.758 1.272H189.878V18H186.758V1.272ZM198.842 18.264C197.658 18.264 196.578 18.008 195.602 17.496C194.642 16.968 193.874 16.24 193.298 15.312C192.738 14.368 192.458 13.28 192.458 12.048C192.458 10.784 192.746 9.688 193.322 8.76C193.898 7.832 194.674 7.112 195.65 6.6C196.642 6.072 197.762 5.808 199.01 5.808C200.386 5.808 201.49 6.088 202.322 6.648C203.17 7.192 203.786 7.936 204.17 8.88C204.554 9.824 204.746 10.88 204.746 12.048C204.746 12.752 204.634 13.472 204.41 14.208C204.186 14.928 203.842 15.6 203.378 16.224C202.914 16.832 202.306 17.328 201.554 17.712C200.802 18.08 199.898 18.264 198.842 18.264ZM199.85 15.864C200.794 15.864 201.61 15.704 202.298 15.384C202.986 15.064 203.514 14.616 203.882 14.04C204.25 13.464 204.434 12.8 204.434 12.048C204.434 11.232 204.242 10.544 203.858 9.984C203.49 9.408 202.962 8.976 202.274 8.688C201.602 8.384 200.794 8.232 199.85 8.232C198.522 8.232 197.49 8.584 196.754 9.288C196.018 9.976 195.65 10.896 195.65 12.048C195.65 12.816 195.826 13.488 196.178 14.064C196.53 14.624 197.018 15.064 197.642 15.384C198.282 15.704 199.018 15.864 199.85 15.864ZM204.434 6.072H207.554V18H204.65C204.65 18 204.626 17.848 204.578 17.544C204.546 17.224 204.514 16.824 204.482 16.344C204.45 15.864 204.434 15.392 204.434 14.928V6.072ZM210.378 6.072H213.498V18H210.378V6.072ZM218.082 8.64C217.186 8.64 216.41 8.816 215.754 9.168C215.098 9.504 214.57 9.92 214.17 10.416C213.77 10.912 213.49 11.392 213.33 11.856L213.306 10.536C213.322 10.344 213.386 10.064 213.498 9.696C213.61 9.312 213.778 8.904 214.002 8.472C214.226 8.024 214.522 7.6 214.89 7.2C215.258 6.784 215.706 6.448 216.234 6.192C216.762 5.936 217.378 5.808 218.082 5.808V8.64Z" fill="black"/>
<path d="M62.92 16.416H61.408L70.336 2.472H73.528V18H70.336V6.72L71.104 6.936L63.976 18H60.4L53.272 6.984L54.04 6.768V18H50.848V2.472H54.04L62.92 16.416ZM80.3832 0.839999V3.576H76.7592V0.839999H80.3832ZM76.9992 6.072H80.1192V18H76.9992V6.072ZM83.4691 1.272H86.5891V18H83.4691V1.272ZM89.9847 1.272H93.1047V18H89.9847V1.272ZM99.8363 0.839999V3.576H96.2123V0.839999H99.8363ZM96.4523 6.072H99.5723V18H96.4523V6.072ZM109.714 18.288C108.21 18.288 106.882 18.048 105.73 17.568C104.594 17.088 103.706 16.392 103.066 15.48C102.426 14.552 102.106 13.416 102.106 12.072C102.106 10.728 102.426 9.592 103.066 8.664C103.706 7.72 104.594 7.008 105.73 6.528C106.882 6.048 108.21 5.808 109.714 5.808C111.218 5.808 112.53 6.048 113.65 6.528C114.786 7.008 115.674 7.72 116.314 8.664C116.954 9.592 117.274 10.728 117.274 12.072C117.274 13.416 116.954 14.552 116.314 15.48C115.674 16.392 114.786 17.088 113.65 17.568C112.53 18.048 111.218 18.288 109.714 18.288ZM109.714 15.888C110.546 15.888 111.29 15.744 111.946 15.456C112.618 15.152 113.146 14.72 113.53 14.16C113.914 13.584 114.106 12.888 114.106 12.072C114.106 11.256 113.914 10.56 113.53 9.984C113.146 9.392 112.626 8.944 111.97 8.64C111.314 8.336 110.562 8.184 109.714 8.184C108.882 8.184 108.13 8.336 107.458 8.64C106.786 8.944 106.25 9.384 105.85 9.96C105.466 10.536 105.274 11.24 105.274 12.072C105.274 12.888 105.466 13.584 105.85 14.16C106.234 14.72 106.762 15.152 107.434 15.456C108.106 15.744 108.866 15.888 109.714 15.888ZM119.581 6.072H122.701V18H119.581V6.072ZM128.245 5.808C128.981 5.808 129.661 5.904 130.285 6.096C130.909 6.288 131.453 6.584 131.917 6.984C132.381 7.384 132.741 7.896 132.997 8.52C133.253 9.128 133.381 9.856 133.381 10.704V18H130.261V11.256C130.261 10.248 130.013 9.512 129.517 9.048C129.037 8.568 128.245 8.328 127.141 8.328C126.309 8.328 125.557 8.488 124.885 8.808C124.213 9.128 123.669 9.536 123.253 10.032C122.837 10.512 122.597 11.016 122.533 11.544L122.509 10.32C122.589 9.76 122.773 9.216 123.061 8.688C123.349 8.16 123.733 7.68 124.213 7.248C124.709 6.8 125.293 6.448 125.965 6.192C126.637 5.936 127.397 5.808 128.245 5.808ZM151.298 2.472C153.042 2.472 154.498 2.68 155.666 3.096C156.834 3.512 157.762 4.08 158.45 4.8C159.154 5.504 159.65 6.32 159.938 7.248C160.242 8.176 160.394 9.152 160.394 10.176C160.394 11.2 160.226 12.184 159.89 13.128C159.57 14.072 159.05 14.912 158.33 15.648C157.626 16.368 156.69 16.944 155.522 17.376C154.37 17.792 152.962 18 151.298 18H142.418V2.472H151.298ZM145.61 15.264H151.226C152.378 15.264 153.33 15.128 154.082 14.856C154.85 14.568 155.458 14.184 155.906 13.704C156.354 13.224 156.674 12.68 156.866 12.072C157.058 11.464 157.154 10.832 157.154 10.176C157.154 9.52 157.058 8.896 156.866 8.304C156.674 7.712 156.354 7.184 155.906 6.72C155.458 6.256 154.85 5.888 154.082 5.616C153.33 5.344 152.378 5.208 151.226 5.208H145.61V15.264ZM170.136 18.288C168.632 18.288 167.304 18.048 166.152 17.568C165.016 17.088 164.128 16.392 163.488 15.48C162.848 14.552 162.528 13.416 162.528 12.072C162.528 10.728 162.848 9.592 163.488 8.664C164.128 7.72 165.016 7.008 166.152 6.528C167.304 6.048 168.632 5.808 170.136 5.808C171.64 5.808 172.952 6.048 174.072 6.528C175.208 7.008 176.096 7.72 176.736 8.664C177.376 9.592 177.696 10.728 177.696 12.072C177.696 13.416 177.376 14.552 176.736 15.48C176.096 16.392 175.208 17.088 174.072 17.568C172.952 18.048 171.64 18.288 170.136 18.288ZM170.136 15.888C170.968 15.888 171.712 15.744 172.368 15.456C173.04 15.152 173.568 14.72 173.952 14.16C174.336 13.584 174.528 12.888 174.528 12.072C174.528 11.256 174.336 10.56 173.952 9.984C173.568 9.392 173.048 8.944 172.392 8.64C171.736 8.336 170.984 8.184 170.136 8.184C169.304 8.184 168.552 8.336 167.88 8.64C167.208 8.944 166.672 9.384 166.272 9.96C165.888 10.536 165.696 11.24 165.696 12.072C165.696 12.888 165.888 13.584 166.272 14.16C166.656 14.72 167.184 15.152 167.856 15.456C168.528 15.744 169.288 15.888 170.136 15.888ZM180.243 1.272H183.363V18H180.243V1.272ZM186.758 1.272H189.878V18H186.758V1.272ZM198.842 18.264C197.658 18.264 196.578 18.008 195.602 17.496C194.642 16.968 193.874 16.24 193.298 15.312C192.738 14.368 192.458 13.28 192.458 12.048C192.458 10.784 192.746 9.688 193.322 8.76C193.898 7.832 194.674 7.112 195.65 6.6C196.642 6.072 197.762 5.808 199.01 5.808C200.386 5.808 201.49 6.088 202.322 6.648C203.17 7.192 203.786 7.936 204.17 8.88C204.554 9.824 204.746 10.88 204.746 12.048C204.746 12.752 204.634 13.472 204.41 14.208C204.186 14.928 203.842 15.6 203.378 16.224C202.914 16.832 202.306 17.328 201.554 17.712C200.802 18.08 199.898 18.264 198.842 18.264ZM199.85 15.864C200.794 15.864 201.61 15.704 202.298 15.384C202.986 15.064 203.514 14.616 203.882 14.04C204.25 13.464 204.434 12.8 204.434 12.048C204.434 11.232 204.242 10.544 203.858 9.984C203.49 9.408 202.962 8.976 202.274 8.688C201.602 8.384 200.794 8.232 199.85 8.232C198.522 8.232 197.49 8.584 196.754 9.288C196.018 9.976 195.65 10.896 195.65 12.048C195.65 12.816 195.826 13.488 196.178 14.064C196.53 14.624 197.018 15.064 197.642 15.384C198.282 15.704 199.018 15.864 199.85 15.864ZM204.434 6.072H207.554V18H204.65C204.65 18 204.626 17.848 204.578 17.544C204.546 17.224 204.514 16.824 204.482 16.344C204.45 15.864 204.434 15.392 204.434 14.928V6.072ZM210.378 6.072H213.498V18H210.378V6.072ZM218.082 8.64C217.186 8.64 216.41 8.816 215.754 9.168C215.098 9.504 214.57 9.92 214.17 10.416C213.77 10.912 213.49 11.392 213.33 11.856L213.306 10.536C213.322 10.344 213.386 10.064 213.498 9.696C213.61 9.312 213.778 8.904 214.002 8.472C214.226 8.024 214.522 7.6 214.89 7.2C215.258 6.784 215.706 6.448 216.234 6.192C216.762 5.936 217.378 5.808 218.082 5.808V8.64Z" fill="url(#paint2_linear_228_1439)"/>
<path d="M50.848 38V22.472H59.8C61.88 22.472 63.456 22.824 64.528 23.528C65.616 24.216 66.16 25.248 66.16 26.624C66.16 27.504 65.944 28.2 65.512 28.712C65.08 29.208 64.464 29.576 63.664 29.816C62.88 30.056 61.952 30.208 60.88 30.272L60.976 30.104C61.76 30.12 62.496 30.176 63.184 30.272C63.888 30.368 64.504 30.544 65.032 30.8C65.56 31.056 65.976 31.416 66.28 31.88C66.584 32.328 66.736 32.92 66.736 33.656C66.736 34.616 66.48 35.416 65.968 36.056C65.456 36.68 64.744 37.152 63.832 37.472C62.92 37.792 61.864 37.968 60.664 38H50.848ZM54.04 35.36H60.328C61.336 35.36 62.112 35.2 62.656 34.88C63.2 34.544 63.472 34.016 63.472 33.296C63.472 32.768 63.312 32.384 62.992 32.144C62.672 31.904 62.248 31.76 61.72 31.712C61.192 31.648 60.624 31.616 60.016 31.616H54.04V35.36ZM54.04 29.048H59.68C60.688 29.048 61.464 28.904 62.008 28.616C62.552 28.312 62.824 27.8 62.824 27.08C62.824 26.36 62.552 25.856 62.008 25.568C61.464 25.264 60.744 25.112 59.848 25.112H54.04V29.048ZM82.9666 38H79.8466V26.072H82.9666V38ZM80.0146 32.264L80.0386 33.08C80.0066 33.304 79.9266 33.632 79.7986 34.064C79.6706 34.48 79.4706 34.928 79.1986 35.408C78.9426 35.888 78.6066 36.352 78.1906 36.8C77.7746 37.232 77.2626 37.592 76.6546 37.88C76.0466 38.152 75.3266 38.288 74.4946 38.288C73.8386 38.288 73.1906 38.208 72.5506 38.048C71.9266 37.888 71.3586 37.624 70.8466 37.256C70.3346 36.872 69.9266 36.36 69.6226 35.72C69.3186 35.08 69.1666 34.272 69.1666 33.296V26.072H72.2866V32.768C72.2866 33.536 72.4066 34.144 72.6466 34.592C72.9026 35.024 73.2706 35.328 73.7506 35.504C74.2306 35.68 74.7986 35.768 75.4546 35.768C76.3186 35.768 77.0626 35.584 77.6866 35.216C78.3106 34.832 78.8146 34.368 79.1986 33.824C79.5986 33.28 79.8706 32.76 80.0146 32.264ZM85.3272 34.04H88.2072C88.3832 34.584 88.7432 35.032 89.2872 35.384C89.8472 35.72 90.5752 35.888 91.4712 35.888C92.0792 35.888 92.5512 35.832 92.8872 35.72C93.2232 35.608 93.4552 35.448 93.5832 35.24C93.7112 35.016 93.7752 34.768 93.7752 34.496C93.7752 34.16 93.6712 33.904 93.4632 33.728C93.2552 33.536 92.9352 33.384 92.5032 33.272C92.0712 33.16 91.5192 33.056 90.8472 32.96C90.1752 32.848 89.5272 32.712 88.9032 32.552C88.2792 32.392 87.7272 32.184 87.2472 31.928C86.7672 31.656 86.3832 31.32 86.0952 30.92C85.8232 30.504 85.6872 30 85.6872 29.408C85.6872 28.832 85.8232 28.32 86.0952 27.872C86.3832 27.424 86.7752 27.048 87.2712 26.744C87.7832 26.44 88.3752 26.208 89.0472 26.048C89.7352 25.888 90.4712 25.808 91.2552 25.808C92.4392 25.808 93.4232 25.984 94.2072 26.336C94.9912 26.672 95.5752 27.152 95.9592 27.776C96.3592 28.384 96.5592 29.088 96.5592 29.888H93.7992C93.6712 29.296 93.4152 28.872 93.0312 28.616C92.6472 28.344 92.0552 28.208 91.2552 28.208C90.4712 28.208 89.8792 28.328 89.4792 28.568C89.0792 28.808 88.8792 29.136 88.8792 29.552C88.8792 29.888 88.9992 30.152 89.2392 30.344C89.4952 30.52 89.8632 30.664 90.3432 30.776C90.8392 30.888 91.4552 31.008 92.1912 31.136C92.8152 31.264 93.4072 31.408 93.9672 31.568C94.5432 31.728 95.0552 31.936 95.5032 32.192C95.9512 32.432 96.3032 32.76 96.5592 33.176C96.8312 33.576 96.9672 34.088 96.9672 34.712C96.9672 35.48 96.7432 36.128 96.2952 36.656C95.8632 37.184 95.2392 37.592 94.4232 37.88C93.6072 38.152 92.6312 38.288 91.4952 38.288C90.4872 38.288 89.6152 38.184 88.8792 37.976C88.1592 37.752 87.5592 37.472 87.0792 37.136C86.5992 36.784 86.2232 36.416 85.9512 36.032C85.6952 35.632 85.5192 35.256 85.4232 34.904C85.3272 34.552 85.2952 34.264 85.3272 34.04ZM102.93 20.84V23.576H99.3061V20.84H102.93ZM99.5461 26.072H102.666V38H99.5461V26.072ZM105.776 26.072H108.896V38H105.776V26.072ZM114.44 25.808C115.176 25.808 115.856 25.904 116.48 26.096C117.104 26.288 117.648 26.584 118.112 26.984C118.576 27.384 118.936 27.896 119.192 28.52C119.448 29.128 119.576 29.856 119.576 30.704V38H116.456V31.256C116.456 30.248 116.208 29.512 115.712 29.048C115.232 28.568 114.44 28.328 113.336 28.328C112.504 28.328 111.752 28.488 111.08 28.808C110.408 29.128 109.864 29.536 109.448 30.032C109.032 30.512 108.792 31.016 108.728 31.544L108.704 30.32C108.784 29.76 108.968 29.216 109.256 28.688C109.544 28.16 109.928 27.68 110.408 27.248C110.904 26.8 111.488 26.448 112.16 26.192C112.832 25.936 113.592 25.808 114.44 25.808ZM133.289 34.04H136.313C136.185 34.856 135.841 35.584 135.281 36.224C134.737 36.864 133.993 37.368 133.049 37.736C132.105 38.104 130.953 38.288 129.593 38.288C128.073 38.288 126.729 38.048 125.561 37.568C124.393 37.072 123.481 36.36 122.825 35.432C122.169 34.504 121.841 33.384 121.841 32.072C121.841 30.76 122.161 29.64 122.801 28.712C123.441 27.768 124.329 27.048 125.465 26.552C126.617 26.056 127.961 25.808 129.497 25.808C131.065 25.808 132.369 26.056 133.409 26.552C134.449 27.048 135.217 27.8 135.713 28.808C136.225 29.8 136.441 31.072 136.361 32.624H124.985C125.065 33.232 125.289 33.784 125.657 34.28C126.041 34.776 126.553 35.168 127.193 35.456C127.849 35.744 128.625 35.888 129.521 35.888C130.513 35.888 131.337 35.72 131.993 35.384C132.665 35.032 133.097 34.584 133.289 34.04ZM129.353 28.184C128.201 28.184 127.265 28.44 126.545 28.952C125.825 29.448 125.361 30.064 125.153 30.8H133.265C133.185 30 132.801 29.368 132.113 28.904C131.441 28.424 130.521 28.184 129.353 28.184ZM138.202 34.04H141.082C141.258 34.584 141.618 35.032 142.162 35.384C142.722 35.72 143.45 35.888 144.346 35.888C144.954 35.888 145.426 35.832 145.762 35.72C146.098 35.608 146.33 35.448 146.458 35.24C146.586 35.016 146.65 34.768 146.65 34.496C146.65 34.16 146.546 33.904 146.338 33.728C146.13 33.536 145.81 33.384 145.378 33.272C144.946 33.16 144.394 33.056 143.722 32.96C143.05 32.848 142.402 32.712 141.778 32.552C141.154 32.392 140.602 32.184 140.122 31.928C139.642 31.656 139.258 31.32 138.97 30.92C138.698 30.504 138.562 30 138.562 29.408C138.562 28.832 138.698 28.32 138.97 27.872C139.258 27.424 139.65 27.048 140.146 26.744C140.658 26.44 141.25 26.208 141.922 26.048C142.61 25.888 143.346 25.808 144.13 25.808C145.314 25.808 146.298 25.984 147.082 26.336C147.866 26.672 148.45 27.152 148.834 27.776C149.234 28.384 149.434 29.088 149.434 29.888H146.674C146.546 29.296 146.29 28.872 145.906 28.616C145.522 28.344 144.93 28.208 144.13 28.208C143.346 28.208 142.754 28.328 142.354 28.568C141.954 28.808 141.754 29.136 141.754 29.552C141.754 29.888 141.874 30.152 142.114 30.344C142.37 30.52 142.738 30.664 143.218 30.776C143.714 30.888 144.33 31.008 145.066 31.136C145.69 31.264 146.282 31.408 146.842 31.568C147.418 31.728 147.93 31.936 148.378 32.192C148.826 32.432 149.178 32.76 149.434 33.176C149.706 33.576 149.842 34.088 149.842 34.712C149.842 35.48 149.618 36.128 149.17 36.656C148.738 37.184 148.114 37.592 147.298 37.88C146.482 38.152 145.506 38.288 144.37 38.288C143.362 38.288 142.49 38.184 141.754 37.976C141.034 37.752 140.434 37.472 139.954 37.136C139.474 36.784 139.098 36.416 138.826 36.032C138.57 35.632 138.394 35.256 138.298 34.904C138.202 34.552 138.17 34.264 138.202 34.04ZM151.749 34.04H154.629C154.805 34.584 155.165 35.032 155.709 35.384C156.269 35.72 156.997 35.888 157.893 35.888C158.501 35.888 158.973 35.832 159.309 35.72C159.645 35.608 159.877 35.448 160.005 35.24C160.133 35.016 160.197 34.768 160.197 34.496C160.197 34.16 160.093 33.904 159.885 33.728C159.677 33.536 159.357 33.384 158.925 33.272C158.493 33.16 157.941 33.056 157.269 32.96C156.597 32.848 155.949 32.712 155.325 32.552C154.701 32.392 154.149 32.184 153.669 31.928C153.189 31.656 152.805 31.32 152.517 30.92C152.245 30.504 152.109 30 152.109 29.408C152.109 28.832 152.245 28.32 152.517 27.872C152.805 27.424 153.197 27.048 153.693 26.744C154.205 26.44 154.797 26.208 155.469 26.048C156.157 25.888 156.893 25.808 157.677 25.808C158.861 25.808 159.845 25.984 160.629 26.336C161.413 26.672 161.997 27.152 162.381 27.776C162.781 28.384 162.981 29.088 162.981 29.888H160.221C160.093 29.296 159.837 28.872 159.453 28.616C159.069 28.344 158.477 28.208 157.677 28.208C156.893 28.208 156.301 28.328 155.901 28.568C155.501 28.808 155.301 29.136 155.301 29.552C155.301 29.888 155.421 30.152 155.661 30.344C155.917 30.52 156.285 30.664 156.765 30.776C157.261 30.888 157.877 31.008 158.613 31.136C159.237 31.264 159.829 31.408 160.389 31.568C160.965 31.728 161.477 31.936 161.925 32.192C162.373 32.432 162.725 32.76 162.981 33.176C163.253 33.576 163.389 34.088 163.389 34.712C163.389 35.48 163.165 36.128 162.717 36.656C162.285 37.184 161.661 37.592 160.845 37.88C160.029 38.152 159.053 38.288 157.917 38.288C156.909 38.288 156.037 38.184 155.301 37.976C154.581 37.752 153.981 37.472 153.501 37.136C153.021 36.784 152.645 36.416 152.373 36.032C152.117 35.632 151.941 35.256 151.845 34.904C151.749 34.552 151.717 34.264 151.749 34.04ZM172.429 22.472H175.621V38H172.429V22.472ZM185.154 38.264C183.954 38.264 182.866 38.008 181.89 37.496C180.93 36.968 180.17 36.24 179.61 35.312C179.05 34.368 178.77 33.28 178.77 32.048C178.77 30.784 179.042 29.688 179.586 28.76C180.146 27.832 180.906 27.112 181.866 26.6C182.826 26.072 183.922 25.808 185.154 25.808C186.226 25.808 187.138 25.968 187.89 26.288C188.642 26.608 189.25 27.056 189.714 27.632C190.178 28.192 190.514 28.848 190.722 29.6C190.946 30.352 191.058 31.168 191.058 32.048C191.058 32.752 190.946 33.472 190.722 34.208C190.498 34.928 190.154 35.6 189.69 36.224C189.226 36.832 188.618 37.328 187.866 37.712C187.114 38.08 186.21 38.264 185.154 38.264ZM186.162 35.864C187.106 35.864 187.922 35.704 188.61 35.384C189.298 35.064 189.826 34.616 190.194 34.04C190.562 33.464 190.746 32.8 190.746 32.048C190.746 31.232 190.554 30.544 190.17 29.984C189.802 29.408 189.274 28.968 188.586 28.664C187.914 28.36 187.106 28.208 186.162 28.208C184.834 28.208 183.802 28.56 183.066 29.264C182.33 29.968 181.962 30.896 181.962 32.048C181.962 32.816 182.138 33.488 182.49 34.064C182.842 34.624 183.33 35.064 183.954 35.384C184.594 35.704 185.33 35.864 186.162 35.864ZM190.746 21.272H193.866V38H190.962C190.914 37.632 190.866 37.16 190.818 36.584C190.77 35.992 190.746 35.44 190.746 34.928V21.272ZM208.101 34.04H211.125C210.997 34.856 210.653 35.584 210.093 36.224C209.549 36.864 208.805 37.368 207.861 37.736C206.917 38.104 205.765 38.288 204.405 38.288C202.885 38.288 201.541 38.048 200.373 37.568C199.205 37.072 198.293 36.36 197.637 35.432C196.981 34.504 196.653 33.384 196.653 32.072C196.653 30.76 196.973 29.64 197.613 28.712C198.253 27.768 199.141 27.048 200.277 26.552C201.429 26.056 202.773 25.808 204.309 25.808C205.877 25.808 207.181 26.056 208.221 26.552C209.261 27.048 210.029 27.8 210.525 28.808C211.037 29.8 211.253 31.072 211.173 32.624H199.797C199.877 33.232 200.101 33.784 200.469 34.28C200.853 34.776 201.365 35.168 202.005 35.456C202.661 35.744 203.437 35.888 204.333 35.888C205.325 35.888 206.149 35.72 206.805 35.384C207.477 35.032 207.909 34.584 208.101 34.04ZM204.165 28.184C203.013 28.184 202.077 28.44 201.357 28.952C200.637 29.448 200.173 30.064 199.965 30.8H208.077C207.997 30 207.613 29.368 206.925 28.904C206.253 28.424 205.333 28.184 204.165 28.184ZM219.303 38.264C218.119 38.264 217.039 38.008 216.063 37.496C215.103 36.968 214.335 36.24 213.759 35.312C213.199 34.368 212.919 33.28 212.919 32.048C212.919 30.784 213.207 29.688 213.783 28.76C214.359 27.832 215.135 27.112 216.111 26.6C217.103 26.072 218.223 25.808 219.471 25.808C220.847 25.808 221.951 26.088 222.783 26.648C223.631 27.192 224.247 27.936 224.631 28.88C225.015 29.824 225.207 30.88 225.207 32.048C225.207 32.752 225.095 33.472 224.871 34.208C224.647 34.928 224.303 35.6 223.839 36.224C223.375 36.832 222.767 37.328 222.015 37.712C221.263 38.08 220.359 38.264 219.303 38.264ZM220.311 35.864C221.255 35.864 222.071 35.704 222.759 35.384C223.447 35.064 223.975 34.616 224.343 34.04C224.711 33.464 224.895 32.8 224.895 32.048C224.895 31.232 224.703 30.544 224.319 29.984C223.951 29.408 223.423 28.976 222.735 28.688C222.063 28.384 221.255 28.232 220.311 28.232C218.983 28.232 217.951 28.584 217.215 29.288C216.479 29.976 216.111 30.896 216.111 32.048C216.111 32.816 216.287 33.488 216.639 34.064C216.991 34.624 217.479 35.064 218.103 35.384C218.743 35.704 219.479 35.864 220.311 35.864ZM224.895 26.072H228.015V38H225.111C225.111 38 225.087 37.848 225.039 37.544C225.007 37.224 224.975 36.824 224.943 36.344C224.911 35.864 224.895 35.392 224.895 34.928V26.072ZM230.358 34.04H233.238C233.414 34.584 233.774 35.032 234.318 35.384C234.878 35.72 235.606 35.888 236.502 35.888C237.11 35.888 237.582 35.832 237.918 35.72C238.254 35.608 238.486 35.448 238.614 35.24C238.742 35.016 238.806 34.768 238.806 34.496C238.806 34.16 238.702 33.904 238.494 33.728C238.286 33.536 237.966 33.384 237.534 33.272C237.102 33.16 236.55 33.056 235.878 32.96C235.206 32.848 234.558 32.712 233.934 32.552C233.31 32.392 232.758 32.184 232.278 31.928C231.798 31.656 231.414 31.32 231.126 30.92C230.854 30.504 230.718 30 230.718 29.408C230.718 28.832 230.854 28.32 231.126 27.872C231.414 27.424 231.806 27.048 232.302 26.744C232.814 26.44 233.406 26.208 234.078 26.048C234.766 25.888 235.502 25.808 236.286 25.808C237.47 25.808 238.454 25.984 239.238 26.336C240.022 26.672 240.606 27.152 240.99 27.776C241.39 28.384 241.59 29.088 241.59 29.888H238.83C238.702 29.296 238.446 28.872 238.062 28.616C237.678 28.344 237.086 28.208 236.286 28.208C235.502 28.208 234.91 28.328 234.51 28.568C234.11 28.808 233.91 29.136 233.91 29.552C233.91 29.888 234.03 30.152 234.27 30.344C234.526 30.52 234.894 30.664 235.374 30.776C235.87 30.888 236.486 31.008 237.222 31.136C237.846 31.264 238.438 31.408 238.998 31.568C239.574 31.728 240.086 31.936 240.534 32.192C240.982 32.432 241.334 32.76 241.59 33.176C241.862 33.576 241.998 34.088 241.998 34.712C241.998 35.48 241.774 36.128 241.326 36.656C240.894 37.184 240.27 37.592 239.454 37.88C238.638 38.152 237.662 38.288 236.526 38.288C235.518 38.288 234.646 38.184 233.91 37.976C233.19 37.752 232.59 37.472 232.11 37.136C231.63 36.784 231.254 36.416 230.982 36.032C230.726 35.632 230.55 35.256 230.454 34.904C230.358 34.552 230.326 34.264 230.358 34.04Z" fill="url(#paint3_linear_228_1439)"/>
<defs>
<linearGradient id="paint0_linear_228_1439" x1="20" y1="-2.32007e-07" x2="23.8568" y2="39.6246" gradientUnits="userSpaceOnUse">
<stop stop-color="#FFC63A"/>
<stop offset="1" stop-color="#BE8700"/>
</linearGradient>
<linearGradient id="paint1_linear_228_1439" x1="20.0001" y1="8" x2="14.4281" y2="30.628" gradientUnits="userSpaceOnUse">
<stop stop-color="#747474"/>
<stop offset="1"/>
</linearGradient>
<linearGradient id="paint2_linear_228_1439" x1="99.5" y1="0.5" x2="99.7004" y2="17.9977" gradientUnits="userSpaceOnUse">
<stop stop-color="#FFC63A"/>
<stop offset="1" stop-color="#BE8700"/>
</linearGradient>
<linearGradient id="paint3_linear_228_1439" x1="146" y1="21" x2="145.72" y2="38.4955" gradientUnits="userSpaceOnUse">
<stop stop-color="#747474"/>
<stop offset="1"/>
</linearGradient>
</defs>
</svg>
